<svg width="115" height="36" viewBox="0 0 115 36" fill="none" xmlns="http://www.w3.org/2000/svg">
<g clip-path="url(#clip0_1478_1128)">
<path d="M29.4569 23.86C29.2569 23.86 28.9636 23.84 28.5769 23.8C28.1903 23.76 27.7903 23.6733 27.3769 23.54C26.9636 23.3933 26.6103 23.1733 26.3169 22.88L26.9169 21.94V27.18H23.9969V15.58C23.9969 15.14 24.1236 14.7666 24.3769 14.46C24.6303 14.1533 24.9769 13.9 25.4169 13.7C25.8569 13.5 26.3636 13.3533 26.9369 13.26C27.5236 13.1533 28.1503 13.1 28.8169 13.1C29.8303 13.1 30.7169 13.2733 31.4769 13.62C32.2503 13.9533 32.8503 14.52 33.277 15.32C33.717 16.12 33.937 17.2133 33.937 18.6C33.937 19.64 33.7569 20.56 33.3969 21.36C33.0369 22.1466 32.5236 22.76 31.8569 23.2C31.2036 23.64 30.4036 23.86 29.4569 23.86ZM28.5769 21.46C29.1103 21.46 29.5503 21.3666 29.8969 21.18C30.2436 20.9933 30.5036 20.6866 30.6769 20.26C30.8636 19.82 30.9569 19.2333 30.9569 18.5C30.9569 17.8866 30.8903 17.3666 30.7569 16.94C30.6236 16.5133 30.3903 16.1866 30.0569 15.96C29.7369 15.72 29.2836 15.6 28.6969 15.6C28.0569 15.6 27.5969 15.6666 27.3169 15.8C27.0503 15.92 26.9169 16.08 26.9169 16.28V21.04C27.1703 21.1866 27.4503 21.2933 27.7569 21.36C28.0636 21.4266 28.3369 21.46 28.5769 21.46Z" fill="#23556E"/>
<path d="M17.4452 23.86C17.2452 23.86 16.9519 23.84 16.5652 23.8C16.1786 23.76 15.7786 23.6733 15.3652 23.54C14.9519 23.3933 14.5986 23.1733 14.3052 22.88L14.9052 21.94V27.18H11.9852V15.58C11.9852 15.14 12.1119 14.7666 12.3652 14.46C12.6186 14.1533 12.9652 13.9 13.4052 13.7C13.8452 13.5 14.3519 13.3533 14.9252 13.26C15.5119 13.1533 16.1386 13.1 16.8052 13.1C17.8186 13.1 18.7052 13.2733 19.4652 13.62C20.2386 13.9533 20.8386 14.52 21.2652 15.32C21.7052 16.12 21.9252 17.2133 21.9252 18.6C21.9252 19.64 21.7452 20.56 21.3852 21.36C21.0252 22.1466 20.5119 22.76 19.8452 23.2C19.1919 23.64 18.3919 23.86 17.4452 23.86ZM16.5652 21.46C17.0986 21.46 17.5386 21.3666 17.8852 21.18C18.2319 20.9933 18.4919 20.6866 18.6652 20.26C18.8519 19.82 18.9452 19.2333 18.9452 18.5C18.9452 17.8866 18.8786 17.3666 18.7452 16.94C18.6119 16.5133 18.3786 16.1866 18.0452 15.96C17.7252 15.72 17.2719 15.6 16.6852 15.6C16.0452 15.6 15.5852 15.6666 15.3052 15.8C15.0386 15.92 14.9052 16.08 14.9052 16.28V21.04C15.1586 21.1866 15.4386 21.2933 15.7452 21.36C16.0519 21.4266 16.3252 21.46 16.5652 21.46Z" fill="#23556E"/>
<path d="M4.44 23.86C3.82667 23.86 3.24667 23.8 2.7 23.68C2.16667 23.5733 1.69333 23.3933 1.28 23.14C0.88 22.8733 0.566667 22.52 0.34 22.08C0.113333 21.6266 0 21.0666 0 20.4C0 19.7733 0.126667 19.2266 0.38 18.76C0.646667 18.2933 1.04667 17.9333 1.58 17.68C2.11333 17.4266 2.78667 17.3 3.6 17.3C4.05333 17.3 4.49333 17.3466 4.92 17.44C5.34667 17.5333 5.72667 17.66 6.06 17.82C6.40667 17.98 6.68 18.1533 6.88 18.34L7 19.78C6.73333 19.62 6.41333 19.4933 6.04 19.4C5.66667 19.3066 5.26667 19.26 4.84 19.26C4.18667 19.26 3.70667 19.36 3.4 19.56C3.10667 19.7466 2.96 20.0466 2.96 20.46C2.96 20.7133 3.03333 20.94 3.18 21.14C3.32667 21.34 3.52 21.4933 3.76 21.6C4.01333 21.7066 4.27333 21.76 4.54 21.76C5.22 21.76 5.69333 21.7133 5.96 21.62C6.24 21.5266 6.38 21.34 6.38 21.06V17.34C6.38 16.7266 6.18 16.2866 5.78 16.02C5.39333 15.74 4.84 15.6 4.12 15.6C3.53333 15.6 2.94 15.7066 2.34 15.92C1.75333 16.12 1.27333 16.3666 0.9 16.66V14.02C1.24667 13.8066 1.78 13.6066 2.5 13.42C3.23333 13.2333 4.05333 13.14 4.96 13.14C5.28 13.14 5.63333 13.1666 6.02 13.22C6.40667 13.2733 6.79333 13.3733 7.18 13.52C7.56667 13.6533 7.92 13.8533 8.24 14.12C8.57333 14.3866 8.84 14.7266 9.04 15.14C9.24 15.5533 9.34 16.0666 9.34 16.68L9.32 21.46C9.32 22.0333 9.12667 22.5 8.74 22.86C8.35333 23.2066 7.79333 23.46 7.06 23.62C6.34 23.78 5.46667 23.86 4.44 23.86Z" fill="#23556E"/>
<path d="M106.613 14.04C106.933 13.88 107.259 13.74 107.593 13.62C107.939 13.4867 108.286 13.38 108.633 13.3C108.993 13.22 109.353 13.16 109.713 13.12C110.086 13.08 110.459 13.06 110.833 13.06C111.806 13.06 112.579 13.2067 113.153 13.5C113.726 13.78 114.139 14.1933 114.393 14.74C114.659 15.2867 114.793 15.9467 114.793 16.72V23.22H113.353V16.72C113.353 16.48 113.319 16.2267 113.253 15.96C113.199 15.6933 113.086 15.44 112.913 15.2C112.739 14.9467 112.473 14.7467 112.113 14.6C111.753 14.44 111.273 14.36 110.673 14.36C110.259 14.36 109.833 14.3933 109.393 14.46C108.953 14.5267 108.506 14.6267 108.053 14.76V23.22H106.613V14.04Z" fill="#23556E"/>
<path d="M99.7953 23.52C98.8486 23.52 98.0286 23.3267 97.3353 22.94C96.642 22.54 96.1086 21.9467 95.7353 21.16C95.362 20.3733 95.1753 19.3933 95.1753 18.22C95.1753 16.5 95.562 15.2133 96.3353 14.36C97.122 13.4933 98.1953 13.06 99.5553 13.06C100.622 13.06 101.475 13.3 102.115 13.78C102.769 14.26 103.235 14.9067 103.515 15.72C103.795 16.5333 103.929 17.4533 103.915 18.48H95.8953L95.9953 17.16H102.975L102.415 17.36C102.375 16.36 102.122 15.6133 101.655 15.12C101.202 14.6267 100.502 14.38 99.5553 14.38C98.902 14.38 98.3553 14.5 97.9153 14.74C97.4886 14.98 97.1686 15.4 96.9553 16C96.742 16.5867 96.6353 17.4133 96.6353 18.48C96.6353 19.6933 96.9153 20.62 97.4753 21.26C98.0486 21.8867 98.8486 22.2 99.8753 22.2C100.369 22.2 100.822 22.1667 101.235 22.1C101.649 22.02 102.029 21.9133 102.375 21.78C102.722 21.6467 103.029 21.5 103.295 21.34V22.82C102.815 23.0467 102.282 23.22 101.695 23.34C101.122 23.46 100.489 23.52 99.7953 23.52Z" fill="#23556E"/>
<path d="M88.8394 23.22V14.04C88.9994 13.9733 89.306 13.86 89.7594 13.7C90.226 13.54 90.7794 13.3933 91.4194 13.26C92.0727 13.1267 92.746 13.06 93.4394 13.06C93.546 13.06 93.6527 13.0733 93.7594 13.1C93.866 13.1267 93.9727 13.1533 94.0794 13.18V14.46C93.7327 14.42 93.3927 14.4 93.0594 14.4C92.7394 14.4 92.426 14.42 92.1194 14.46C91.8127 14.4867 91.506 14.5267 91.1994 14.58C90.8927 14.6333 90.586 14.6867 90.2794 14.74V23.22H88.8394Z" fill="#23556E"/>
<path d="M77.3354 23.22V8.82001H78.7755V14.36L78.6155 13.98C79.1221 13.7 79.6555 13.48 80.2155 13.32C80.7755 13.1467 81.3021 13.06 81.7955 13.06C82.6221 13.06 83.3155 13.2133 83.8755 13.52C84.4488 13.8267 84.8821 14.2933 85.1755 14.92C85.4821 15.5333 85.6355 16.3267 85.6355 17.3V23.22H84.1954V17.3C84.1954 16.3667 83.9821 15.6467 83.5555 15.14C83.1288 14.6333 82.4888 14.38 81.6355 14.38C81.1688 14.38 80.6955 14.4467 80.2155 14.58C79.7488 14.7133 79.2688 14.9133 78.7755 15.18V23.22H77.3354Z" fill="#23556E"/>
<path d="M69.7012 23.52C69.2612 23.52 68.8145 23.4733 68.3612 23.38C67.9212 23.2867 67.5079 23.1267 67.1212 22.9C66.7479 22.6733 66.4412 22.3667 66.2012 21.98C65.9745 21.58 65.8612 21.08 65.8612 20.48C65.8612 19.6533 66.0145 18.9933 66.3212 18.5C66.6412 17.9933 67.0745 17.6333 67.6212 17.42C68.1812 17.1933 68.8212 17.08 69.5412 17.08C70.0879 17.08 70.5612 17.1133 70.9612 17.18C71.3612 17.2467 71.7145 17.3467 72.0212 17.48C72.3412 17.6 72.6279 17.74 72.8812 17.9L73.1612 19.22C72.8545 18.9933 72.4079 18.8 71.8212 18.64C71.2479 18.4667 70.6145 18.38 69.9212 18.38C69.0812 18.38 68.4345 18.54 67.9812 18.86C67.5279 19.18 67.3012 19.6467 67.3012 20.26C67.3012 20.7533 67.4345 21.1467 67.7012 21.44C67.9812 21.7333 68.3279 21.94 68.7412 22.06C69.1679 22.18 69.6012 22.24 70.0412 22.24C70.9079 22.24 71.5612 22.18 72.0012 22.06C72.4545 21.9267 72.6812 21.6333 72.6812 21.18V16.6C72.6812 15.8267 72.4545 15.26 72.0012 14.9C71.5479 14.54 70.9012 14.36 70.0612 14.36C69.5279 14.36 68.9612 14.44 68.3612 14.6C67.7745 14.7467 67.2679 14.9867 66.8412 15.32V13.88C67.2545 13.6133 67.8079 13.4133 68.5012 13.28C69.1945 13.1333 69.8679 13.06 70.5212 13.06C70.9612 13.06 71.3679 13.1067 71.7412 13.2C72.1145 13.28 72.4479 13.4067 72.7412 13.58C73.0345 13.74 73.2812 13.9533 73.4812 14.22C73.6945 14.4733 73.8545 14.7733 73.9612 15.12C74.0812 15.4533 74.1412 15.8333 74.1412 16.26V21.1C74.1412 21.8067 73.9279 22.3333 73.5012 22.68C73.0879 23.0267 72.5412 23.2533 71.8612 23.36C71.1945 23.4667 70.4745 23.52 69.7012 23.52Z" fill="#23556E"/>
<path d="M59.6812 23.22V14.56H57.9612V13.24H59.6812V12.7C59.6812 11.9667 59.7612 11.3734 59.9212 10.92C60.0945 10.4534 60.3145 10.0934 60.5812 9.84002C60.8478 9.57335 61.1278 9.38668 61.4212 9.28002C61.7145 9.16002 61.9945 9.09335 62.2612 9.08002C62.5278 9.05335 62.7412 9.04002 62.9012 9.04002C63.0878 9.04002 63.2612 9.05335 63.4212 9.08002C63.5812 9.09335 63.7278 9.12002 63.8612 9.16002V10.44C63.7678 10.4133 63.6612 10.3934 63.5412 10.38C63.4212 10.3667 63.2878 10.36 63.1412 10.36C62.9145 10.36 62.6812 10.3734 62.4412 10.4C62.2012 10.4267 61.9812 10.5133 61.7812 10.66C61.5812 10.7934 61.4212 11.02 61.3012 11.34C61.1812 11.6467 61.1212 12.0934 61.1212 12.68V13.24H63.8612V14.56H61.1212V23.22H59.6812Z" fill="#23556E"/>
<path d="M51.9437 23.52C50.9971 23.52 50.1771 23.3267 49.4837 22.94C48.7904 22.54 48.2571 21.9467 47.8837 21.16C47.5104 20.3733 47.3237 19.3933 47.3237 18.22C47.3237 16.5 47.7104 15.2133 48.4837 14.36C49.2704 13.4933 50.3437 13.06 51.7037 13.06C52.7704 13.06 53.6237 13.3 54.2637 13.78C54.9171 14.26 55.3837 14.9067 55.6637 15.72C55.9437 16.5333 56.0771 17.4533 56.0637 18.48H48.0437L48.1437 17.16H55.1237L54.5637 17.36C54.5237 16.36 54.2704 15.6133 53.8037 15.12C53.3504 14.6267 52.6504 14.38 51.7037 14.38C51.0504 14.38 50.5037 14.5 50.0637 14.74C49.6371 14.98 49.3171 15.4 49.1037 16C48.8904 16.5867 48.7837 17.4133 48.7837 18.48C48.7837 19.6933 49.0637 20.62 49.6237 21.26C50.1971 21.8867 50.9971 22.2 52.0237 22.2C52.5171 22.2 52.9704 22.1667 53.3837 22.1C53.7971 22.02 54.1771 21.9133 54.5237 21.78C54.8704 21.6467 55.1771 21.5 55.4437 21.34V22.82C54.9637 23.0467 54.4304 23.22 53.8437 23.34C53.2704 23.46 52.6371 23.52 51.9437 23.52Z" fill="#23556E"/>
<path d="M40.497 23.52C39.4703 23.52 38.617 23.32 37.937 22.92C37.2703 22.5067 36.7703 21.9267 36.437 21.18C36.1037 20.42 35.937 19.5267 35.937 18.5C35.937 17.3534 36.0903 16.4267 36.397 15.72C36.7037 15 37.097 14.4534 37.577 14.08C38.0703 13.6934 38.6037 13.4334 39.177 13.3C39.7637 13.1534 40.3303 13.08 40.877 13.08C41.5037 13.08 42.097 13.1667 42.657 13.34C43.2303 13.5 43.697 13.76 44.057 14.12C44.4303 14.48 44.617 14.96 44.617 15.56V23.64C44.617 24.04 44.557 24.4467 44.437 24.86C44.317 25.2734 44.097 25.6534 43.777 26C43.4703 26.36 43.0303 26.6467 42.457 26.86C41.897 27.0734 41.1703 27.18 40.277 27.18C39.7037 27.18 39.177 27.1267 38.697 27.02C38.217 26.9134 37.797 26.8134 37.437 26.72V25.36C37.6503 25.4134 37.8903 25.4734 38.157 25.54C38.437 25.62 38.737 25.6867 39.057 25.74C39.3903 25.7934 39.7437 25.82 40.117 25.82C41.0237 25.82 41.6903 25.7067 42.117 25.48C42.557 25.2667 42.8437 24.9934 42.977 24.66C43.1103 24.34 43.177 24.0133 43.177 23.68V22.22L43.677 22.72C43.4237 22.8534 43.1037 22.98 42.717 23.1C42.3303 23.22 41.937 23.32 41.537 23.4C41.137 23.48 40.7903 23.52 40.497 23.52ZM40.497 22.2C40.9237 22.2 41.3703 22.1467 41.837 22.04C42.317 21.92 42.7637 21.74 43.177 21.5V15.76C43.177 15.3867 43.0703 15.1067 42.857 14.92C42.657 14.72 42.3837 14.5867 42.037 14.52C41.6903 14.44 41.317 14.4 40.917 14.4C39.9437 14.4 39.2103 14.5934 38.717 14.98C38.2237 15.3534 37.8903 15.8534 37.717 16.48C37.5437 17.1067 37.457 17.78 37.457 18.5C37.457 19.5934 37.6903 20.4867 38.157 21.18C38.6237 21.86 39.4037 22.2 40.497 22.2Z" fill="#23556E"/>
</g>
<defs>
<clipPath id="clip0_1478_1128">
<rect width="114.793" height="18.36" fill="white" transform="translate(0 8.81999)"/>
</clipPath>
</defs>
</svg>
